<?xml version="1.0" encoding="utf-8"?>
<!-- Generator: Adobe Illustrator 25.2.0, SVG Export Plug-In . SVG Version: 6.00 Build 0)  -->
<svg version="1.1" id="Ebene_1" xmlns="http://www.w3.org/2000/svg" xmlns:xlink="http://www.w3.org/1999/xlink" x="0px" y="0px"
	 viewBox="0 0 14 14" style="enable-background:new 0 0 14 14;" xml:space="preserve">
<style type="text/css">
	.st0{fill:#FFFFFF;}
</style>
<path class="st0" d="M11,5.1c0,2-1.6,3.7-3.7,3.7c-1.2,0-2.3-0.6-3-1.5c1.1-0.5,1.9-1.6,1.9-2.9c0-0.7-0.4-1.6-1-2.3
	c0.6-0.4,1.3-0.6,2-0.6C9.4,1.5,11,3.1,11,5.1z"/>
<path class="st0" d="M13,13H1.7c1.3-1.7,3.4-2.7,5.7-2.7C9.6,10.3,11.7,11.3,13,13z"/>
<g>
	<path class="st0" d="M5.3,4.4c0,0.9-0.6,1.7-1.4,2C3.7,6.5,3.4,6.6,3.1,6.6C2,6.6,1,5.6,1,4.4S3.1,1,3.1,1s0.8,0.8,1.4,1.8
		C5,3.4,5.3,4,5.3,4.4z"/>
</g>
</svg>
